<svg id="Edulib" xmlns="http://www.w3.org/2000/svg" viewBox="0 0 933.33 933.33"><path d="M174.65,481.45H87.37V532.7H179v36.85H41V363.12H179v40H87.37v37.43h87.28Z"/><path d="M216.05,363.12h65.88c39.41,0,66.62,6.58,86,22.86,20.32,16.61,31.24,41.67,31.24,77.68,0,37.59-11.23,65.79-31.24,83.95-21,19.11-54.43,21.94-95.4,21.94h-56.5Zm46,169.79,18.31-.21c50,.31,73.69-3.46,73.69-67.78,0-51.71-20.52-61.5-68.69-61.5H262.06Z"/><path d="M514.19,570.21c-65.12,0-81.63-27.25-81.63-93.65V363.12H471V478.75c0,45,17.2,57.42,43.16,57.42s43.16-12.38,43.16-57.42V363.12h38.47V476.56C595.82,543,579.31,570.21,514.19,570.21Z"/><path d="M661.11,363.12h38.78L660.35,570.21H621.56Z"/><polygon points="697.35 570.21 724.47 420.34 763.26 420.34 736.13 570.21 697.35 570.21"/><polygon points="728.87 396.51 734.63 363.12 773.42 363.12 767.62 396.51 728.87 396.51"/><path d="M767,570.21l40.79-207.09h38.47l-16.15,78.21h.63c12-14.73,25-24.42,51.28-24.42,33,0,53.06,30.8,45.62,77.35-9.77,61.17-43.34,76-77.75,76-19.7,0-30.21-2.11-38.83-23h-5.28l-4.69,23ZM817.22,519c1.92,11.67,13.32,24,29.9,24,24.08,0,41.21-20.53,44.85-47.21,3.14-23-1.89-48.78-27.54-48.78-15.64,0-31.57,11.06-39.1,28.19S815.3,507.33,817.22,519Z"/><rect x="4.17" y="440.56" width="170.49" height="40.88"/></svg>